<?xml version="1.0" standalone="no"?>
<!DOCTYPE svg PUBLIC "-//W3C//DTD SVG 1.1//EN" "http://www.w3.org/Graphics/SVG/1.1/DTD/svg11.dtd">
<!--Generator: Xara Designer (www.xara.com), SVG filter version: 6.1.0.16-->
<svg stroke-width="0.501" stroke-linejoin="bevel" fill-rule="evenodd" xmlns:xlink="http://www.w3.org/1999/xlink" xmlns="http://www.w3.org/2000/svg" version="1.1" overflow="visible" width="150pt" height="150pt" viewBox="0 0 150 150">
 <defs>
	</defs>
 <g id="Document" fill="none" stroke="black" font-family="Times New Roman" font-size="16" transform="scale(1 -1)">
  <g id="Spread" transform="translate(0 -150)">
   <g id="Layer 1">
    <path d="M 28.673,121.253 C 54.224,146.804 95.702,146.804 121.253,121.253 C 146.804,95.702 146.804,54.224 121.253,28.673 C 95.702,3.122 54.224,3.122 28.673,28.673 C 3.122,54.224 3.122,95.702 28.673,121.253 Z" fill="#ffffff" stroke-width="6.269" stroke="#178be9" stroke-linejoin="round" stroke-linecap="round" marker-start="none" marker-end="none" stroke-miterlimit="79.8403193612775"/>
    <path d="M 36.595,36.595 C 30.52,42.669 26.186,49.829 23.597,57.454 L 30.328,57.454 C 32.665,51.481 36.244,45.886 41.066,41.066 C 59.775,22.356 90.15,22.356 108.859,41.066 C 113.679,45.886 117.259,51.481 119.595,57.454 L 126.326,57.454 C 123.737,49.829 119.404,42.669 113.33,36.595 C 92.151,15.415 57.774,15.415 36.595,36.595 Z" stroke-width="0.784" stroke="none" fill="#178be9" fill-rule="evenodd" marker-start="none" marker-end="none" stroke-miterlimit="79.8403193612775"/>
    <path d="M 46.946,46.946 C 43.79,50.1 41.278,53.658 39.41,57.454 L 46.569,57.454 C 47.902,55.293 49.505,53.252 51.38,51.379 C 64.396,38.363 85.529,38.363 98.545,51.379 C 100.419,53.252 102.022,55.293 103.355,57.454 L 110.514,57.454 C 108.646,53.658 106.134,50.1 102.979,46.946 C 87.514,31.481 62.411,31.481 46.946,46.946 Z" stroke-width="0.784" stroke="none" fill="#178be9" fill-rule="evenodd" marker-start="none" marker-end="none" stroke-miterlimit="79.8403193612775"/>
    <g id="Group" fill-rule="nonzero" stroke-linejoin="round" stroke-linecap="round" stroke="none" stroke-width="0.395" fill="#000000" stroke-miterlimit="79.8403193612775">
     <g id="Group_1">
      <path d="M 31.429,96.365 C 31.429,94.974 31.072,93.888 30.358,93.108 C 29.645,92.327 28.651,91.937 27.378,91.937 C 26.582,91.937 25.879,92.117 25.268,92.476 C 24.657,92.836 24.187,93.351 23.859,94.024 C 23.53,94.696 23.366,95.477 23.366,96.365 C 23.366,97.746 23.72,98.825 24.429,99.6 C 25.137,100.375 26.136,100.762 27.424,100.762 C 28.656,100.762 29.632,100.366 30.351,99.573 C 31.07,98.779 31.429,97.71 31.429,96.365 Z M 25.23,96.365 C 25.23,94.399 25.956,93.416 27.409,93.416 C 28.847,93.416 29.565,94.399 29.565,96.365 C 29.565,98.311 28.841,99.284 27.394,99.284 C 26.634,99.284 26.083,99.032 25.742,98.529 C 25.4,98.026 25.23,97.305 25.23,96.365 Z" marker-start="none" marker-end="none"/>
      <path d="M 37.828,91.937 C 36.75,91.937 35.913,92.324 35.318,93.1 L 35.21,93.1 C 35.282,92.381 35.318,91.945 35.318,91.791 L 35.318,88.302 L 33.508,88.302 L 33.508,100.608 L 34.971,100.608 C 35.012,100.449 35.097,100.069 35.225,99.469 L 35.318,99.469 C 35.883,100.331 36.73,100.762 37.859,100.762 C 38.922,100.762 39.75,100.378 40.343,99.607 C 40.936,98.837 41.232,97.756 41.232,96.365 C 41.232,94.974 40.931,93.888 40.327,93.108 C 39.724,92.327 38.891,91.937 37.828,91.937 Z M 37.389,99.284 C 36.671,99.284 36.146,99.073 35.815,98.652 C 35.483,98.231 35.318,97.559 35.318,96.635 L 35.318,96.365 C 35.318,95.328 35.482,94.577 35.811,94.113 C 36.139,93.648 36.676,93.416 37.42,93.416 C 38.047,93.416 38.529,93.672 38.868,94.186 C 39.207,94.699 39.376,95.431 39.376,96.381 C 39.376,97.335 39.208,98.058 38.872,98.548 C 38.536,99.039 38.042,99.284 37.389,99.284 Z" marker-start="none" marker-end="none"/>
      <path d="M 47.055,91.937 C 45.73,91.937 44.694,92.323 43.947,93.096 C 43.2,93.869 42.827,94.933 42.827,96.288 C 42.827,97.679 43.173,98.773 43.866,99.569 C 44.56,100.365 45.512,100.762 46.724,100.762 C 47.848,100.762 48.736,100.421 49.388,99.738 C 50.04,99.055 50.366,98.116 50.366,96.92 L 50.366,95.942 L 44.691,95.942 C 44.716,95.115 44.94,94.48 45.36,94.036 C 45.781,93.591 46.374,93.369 47.139,93.369 C 47.643,93.369 48.111,93.417 48.545,93.512 C 48.979,93.607 49.444,93.765 49.943,93.985 L 49.943,92.515 C 49.501,92.304 49.054,92.155 48.603,92.068 C 48.151,91.981 47.635,91.937 47.055,91.937 Z M 46.724,99.392 C 46.149,99.392 45.688,99.209 45.341,98.845 C 44.995,98.48 44.788,97.949 44.721,97.251 L 48.587,97.251 C 48.577,97.954 48.408,98.487 48.079,98.849 C 47.751,99.211 47.299,99.392 46.724,99.392 Z" marker-start="none" marker-end="none"/>
      <path d="M 59.915,92.091 L 58.098,92.091 L 58.098,97.328 C 58.098,97.985 57.966,98.475 57.701,98.799 C 57.437,99.122 57.017,99.284 56.442,99.284 C 55.677,99.284 55.117,99.058 54.763,98.606 C 54.409,98.154 54.232,97.397 54.232,96.334 L 54.232,92.091 L 52.422,92.091 L 52.422,100.608 L 53.839,100.608 L 54.093,99.492 L 54.186,99.492 C 54.442,99.897 54.807,100.21 55.279,100.431 C 55.751,100.652 56.275,100.762 56.85,100.762 C 58.894,100.762 59.915,99.723 59.915,97.644 L 59.915,92.091 Z" marker-start="none" marker-end="none"/>
     </g>
    </g>
    <g id="Group_2" fill-rule="nonzero" stroke-linejoin="round" stroke-linecap="round" stroke="none" stroke-width="0.451" fill="#000000" stroke-miterlimit="79.8403193612775">
     <g id="Group_3">
      <path d="M 32.71,71.035 L 31.805,71.035 L 24.193,82.445 L 24.122,82.445 C 24.193,81.085 24.228,80.06 24.228,79.368 L 24.228,71.035 L 23.366,71.035 L 23.366,83.886 L 24.263,83.886 L 31.866,72.494 L 31.919,72.494 C 31.866,73.549 31.84,74.551 31.84,75.5 L 31.84,83.886 L 32.71,83.886 L 32.71,71.035 Z" marker-start="none" marker-end="none"/>
      <path d="M 47.152,77.478 C 47.152,75.439 46.642,73.826 45.623,72.639 C 44.603,71.453 43.197,70.859 41.404,70.859 C 39.616,70.859 38.213,71.453 37.193,72.639 C 36.173,73.826 35.664,75.445 35.664,77.496 C 35.664,79.541 36.178,81.151 37.206,82.326 C 38.235,83.501 39.64,84.088 41.421,84.088 C 43.215,84.088 44.618,83.498 45.632,82.317 C 46.645,81.136 47.152,79.523 47.152,77.478 Z M 36.639,77.478 C 36.639,75.638 37.05,74.216 37.87,73.211 C 38.69,72.206 39.868,71.703 41.404,71.703 C 42.951,71.703 44.133,72.201 44.95,73.197 C 45.768,74.194 46.177,75.621 46.177,77.478 C 46.177,79.33 45.768,80.75 44.95,81.737 C 44.133,82.725 42.957,83.218 41.421,83.218 C 39.892,83.218 38.712,82.72 37.883,81.724 C 37.054,80.728 36.639,79.313 36.639,77.478 Z" marker-start="none" marker-end="none"/>
      <path d="M 52.92,71.035 L 52.015,71.035 L 52.015,83.042 L 47.84,83.042 L 47.84,83.886 L 57.096,83.886 L 57.096,83.042 L 52.92,83.042 L 52.92,71.035 Z" marker-start="none" marker-end="none"/>
      <path d="M 59.003,71.035 L 59.003,83.886 L 59.9,83.886 L 59.9,71.035 L 59.003,71.035 Z" marker-start="none" marker-end="none"/>
      <path d="M 64.436,71.035 L 63.539,71.035 L 63.539,83.886 L 70.58,83.886 L 70.58,83.06 L 64.436,83.06 L 64.436,77.61 L 70.237,77.61 L 70.237,76.775 L 64.436,76.775 L 64.436,71.035 Z" marker-start="none" marker-end="none"/>
      <path d="M 72.575,71.035 L 72.575,83.886 L 73.472,83.886 L 73.472,71.035 L 72.575,71.035 Z" marker-start="none" marker-end="none"/>
      <path d="M 82.596,83.262 C 80.985,83.262 79.716,82.747 78.79,81.715 C 77.864,80.684 77.401,79.272 77.401,77.478 C 77.401,75.644 77.838,74.22 78.711,73.206 C 79.584,72.193 80.832,71.685 82.456,71.686 C 83.534,71.685 84.524,71.823 85.427,72.099 L 85.427,71.308 C 84.577,71.009 83.516,70.859 82.245,70.859 C 80.44,70.859 79.019,71.442 77.982,72.609 C 76.944,73.775 76.426,75.404 76.426,77.496 C 76.426,78.803 76.673,79.954 77.168,80.95 C 77.663,81.947 78.376,82.716 79.304,83.258 C 80.233,83.8 81.313,84.071 82.544,84.071 C 83.798,84.071 84.92,83.836 85.91,83.368 L 85.55,82.559 C 84.612,83.028 83.628,83.262 82.596,83.262 Z" marker-start="none" marker-end="none"/>
      <path d="M 94.48,75.571 L 89.259,75.571 L 87.466,71.035 L 86.473,71.035 L 91.641,83.939 L 92.213,83.939 L 97.276,71.035 L 96.265,71.035 L 94.48,75.571 Z M 89.584,76.38 L 94.182,76.38 L 92.432,81.012 C 92.286,81.375 92.11,81.879 91.905,82.524 C 91.747,81.961 91.574,81.451 91.386,80.994 L 89.584,76.38 Z" marker-start="none" marker-end="none"/>
      <path d="M 101.188,71.035 L 100.283,71.035 L 100.283,83.042 L 96.108,83.042 L 96.108,83.886 L 105.364,83.886 L 105.364,83.042 L 101.188,83.042 L 101.188,71.035 Z" marker-start="none" marker-end="none"/>
      <path d="M 107.271,71.035 L 107.271,83.886 L 108.168,83.886 L 108.168,71.035 L 107.271,71.035 Z" marker-start="none" marker-end="none"/>
      <path d="M 118.831,71.035 L 111.807,71.035 L 111.807,83.886 L 118.831,83.886 L 118.831,83.06 L 112.704,83.06 L 112.704,78.199 L 118.488,78.199 L 118.488,77.373 L 112.704,77.373 L 112.704,71.862 L 118.831,71.862 L 118.831,71.035 Z" marker-start="none" marker-end="none"/>
      <path d="M 128.834,74.349 C 128.834,73.277 128.44,72.427 127.652,71.8 C 126.864,71.173 125.816,70.859 124.509,70.859 C 122.939,70.859 121.734,71.032 120.896,71.378 L 120.896,72.275 C 121.822,71.882 123.003,71.685 124.439,71.686 C 125.494,71.685 126.33,71.927 126.948,72.411 C 127.567,72.894 127.876,73.529 127.876,74.314 C 127.876,74.8 127.773,75.203 127.568,75.522 C 127.363,75.842 127.029,76.133 126.566,76.397 C 126.103,76.661 125.423,76.945 124.527,77.25 C 123.214,77.701 122.307,78.189 121.806,78.713 C 121.305,79.238 121.055,79.936 121.055,80.81 C 121.055,81.771 121.431,82.555 122.184,83.161 C 122.937,83.768 123.906,84.071 125.089,84.071 C 126.296,84.071 127.43,83.842 128.491,83.385 L 128.166,82.612 C 127.099,83.057 126.08,83.28 125.107,83.28 C 124.157,83.28 123.402,83.06 122.839,82.621 C 122.276,82.181 121.995,81.583 121.995,80.827 C 121.995,80.353 122.081,79.963 122.254,79.658 C 122.427,79.353 122.71,79.079 123.103,78.836 C 123.495,78.593 124.169,78.302 125.125,77.962 C 126.127,77.616 126.88,77.281 127.384,76.955 C 127.887,76.63 128.255,76.261 128.487,75.848 C 128.718,75.435 128.834,74.935 128.834,74.349 Z" marker-start="none" marker-end="none"/>
     </g>
    </g>
   </g>
  </g>
 </g>
</svg>
